<svg preserveAspectRatio="none" overflow="visible" style="display: block;" width="18" height="18" viewBox="0 0 18 18" fill="none" xmlns="http://www.w3.org/2000/svg">
<g id="megaphone">
<path id="10 &#226;&#128;&#148; Experimental / Respond / megaphone / Icon Path 1" d="M4.5 10.5C4.5 12.4473 5.1316 14.3421 6.3 15.9C6.53869 16.2183 6.89404 16.4287 7.28787 16.4849C7.68169 16.5412 8.08174 16.4387 8.4 16.2C8.71826 15.9613 8.92866 15.606 8.98492 15.2121C9.04119 14.8183 8.93869 14.4183 8.7 14.1C7.92107 13.0614 7.5 11.7982 7.5 10.5M4.5 10.5H6M7.5 10.5H8.25C10.531 10.4412 12.7604 11.1844 14.55 12.6C14.6614 12.6836 14.7939 12.7345 14.9326 12.747C15.0714 12.7595 15.2108 12.7331 15.3354 12.6708C15.46 12.6085 15.5648 12.5128 15.638 12.3943C15.7112 12.2758 15.75 12.1393 15.75 12V3C15.75 2.86072 15.7112 2.72418 15.638 2.6057C15.5648 2.48722 15.46 2.39147 15.3354 2.32918C15.2108 2.26689 15.0714 2.24052 14.9326 2.25303C14.7939 2.26554 14.6614 2.31643 14.55 2.4C12.7604 3.81563 10.531 4.55876 8.25 4.5L6 4.5L3.75 4.5C3.35218 4.5 2.97064 4.65804 2.68934 4.93934C2.40804 5.22064 2.25 5.60218 2.25 6V9C2.25 9.39782 2.40804 9.77936 2.68934 10.0607C2.97064 10.342 3.35218 10.5 3.75 10.5H4.5M7.5 10.5H6M6 4.5V10.5" stroke-width="2" stroke-linecap="square" stroke="#FF3B21"/>
</g>
</svg>
